<mxfile host="65bd71144e">
    <diagram id="TLycTzpztxCECr7iMk3Q" name="Main">
        <mxGraphModel dx="1434" dy="754" grid="1" gridSize="10" guides="1" tooltips="1" connect="1" arrows="1" fold="1" page="1" pageScale="1" pageWidth="850" pageHeight="1100" math="0" shadow="0">
            <root>
                <mxCell id="0"/>
                <mxCell id="1" parent="0"/>
                <mxCell id="SCQu456kyGRi4WaKhEAO-57" value="" style="rounded=0;html=1;fillColor=#f5f5f5;fontColor=#000000;strokeColor=#666666;labelBackgroundColor=none;labelBorderColor=none;" parent="1" vertex="1">
                    <mxGeometry x="100" y="75" width="1330" height="400" as="geometry"/>
                </mxCell>
                <mxCell id="SCQu456kyGRi4WaKhEAO-1" value="Visitar la PÃ¡gina Web" style="rounded=1;html=1;fillColor=#f8cecc;strokeColor=#b85450;labelBackgroundColor=none;labelBorderColor=none;fontColor=#000000;" parent="1" vertex="1">
                    <mxGeometry x="160" y="176" width="120" height="60" as="geometry"/>
                </mxCell>
                <mxCell id="SCQu456kyGRi4WaKhEAO-2" value="Registrarse" style="rounded=1;html=1;fillColor=#ffe6cc;strokeColor=#d79b00;labelBackgroundColor=none;labelBorderColor=none;fontColor=#000000;" parent="1" vertex="1">
                    <mxGeometry x="337.5" y="176" width="120" height="60" as="geometry"/>
                </mxCell>
                <mxCell id="SCQu456kyGRi4WaKhEAO-3" value="Explorar la Libreria" style="rounded=1;html=1;fillColor=#fff2cc;strokeColor=#d6b656;labelBackgroundColor=none;labelBorderColor=none;fontColor=#000000;" parent="1" vertex="1">
                    <mxGeometry x="517.5" y="176" width="120" height="60" as="geometry"/>
                </mxCell>
                <mxCell id="SCQu456kyGRi4WaKhEAO-14" value="Descubrimiento" style="html=1;shadow=0;dashed=0;align=center;verticalAlign=middle;shape=mxgraph.arrows2.arrow;dy=0;dx=30;notch=30;fillColor=#f8cecc;strokeColor=#b85450;labelBackgroundColor=none;labelBorderColor=none;fontColor=#000000;" parent="1" vertex="1">
                    <mxGeometry x="115" y="85" width="205" height="60" as="geometry"/>
                </mxCell>
                <mxCell id="SCQu456kyGRi4WaKhEAO-15" value="Ingreso" style="html=1;shadow=0;dashed=0;align=center;verticalAlign=middle;shape=mxgraph.arrows2.arrow;dy=0;dx=30;notch=30;fillColor=#ffe6cc;strokeColor=#d79b00;labelBackgroundColor=none;labelBorderColor=none;fontColor=#000000;" parent="1" vertex="1">
                    <mxGeometry x="295" y="85" width="205" height="60" as="geometry"/>
                </mxCell>
                <mxCell id="SCQu456kyGRi4WaKhEAO-16" value="Aprendizaje" style="html=1;shadow=0;dashed=0;align=center;verticalAlign=middle;shape=mxgraph.arrows2.arrow;dy=0;dx=30;notch=30;fillColor=#fff2cc;strokeColor=#d6b656;labelBackgroundColor=none;labelBorderColor=none;fontColor=#000000;" parent="1" vertex="1">
                    <mxGeometry x="475" y="85" width="205" height="60" as="geometry"/>
                </mxCell>
                <mxCell id="SCQu456kyGRi4WaKhEAO-17" value="" style="html=1;shadow=0;dashed=0;align=center;verticalAlign=middle;shape=mxgraph.arrows2.arrow;dy=0.6;dx=40;notch=0;fillColor=#bac8d3;strokeColor=#23445d;labelBackgroundColor=none;labelBorderColor=none;fontColor=#000000;" parent="1" vertex="1">
                    <mxGeometry x="290" y="186" width="40" height="40" as="geometry"/>
                </mxCell>
                <mxCell id="SCQu456kyGRi4WaKhEAO-18" value="" style="html=1;shadow=0;dashed=0;align=center;verticalAlign=middle;shape=mxgraph.arrows2.arrow;dy=0.6;dx=40;notch=0;fillColor=#bac8d3;strokeColor=#23445d;labelBackgroundColor=none;labelBorderColor=none;fontColor=#000000;" parent="1" vertex="1">
                    <mxGeometry x="470" y="186" width="40" height="40" as="geometry"/>
                </mxCell>
                <mxCell id="SCQu456kyGRi4WaKhEAO-19" value="Agregar libros al carrito" style="rounded=1;html=1;fillColor=#dae8fc;strokeColor=#6c8ebf;labelBackgroundColor=none;labelBorderColor=none;fontColor=#000000;" parent="1" vertex="1">
                    <mxGeometry x="880" y="176" width="120" height="60" as="geometry"/>
                </mxCell>
                <mxCell id="SCQu456kyGRi4WaKhEAO-20" value="Adquisicion&amp;nbsp;" style="html=1;shadow=0;dashed=0;align=center;verticalAlign=middle;shape=mxgraph.arrows2.arrow;dy=0;dx=30;notch=30;fillColor=#dae8fc;strokeColor=#6c8ebf;labelBackgroundColor=none;labelBorderColor=none;fontColor=#000000;" parent="1" vertex="1">
                    <mxGeometry x="840" y="85" width="390" height="60" as="geometry"/>
                </mxCell>
                <mxCell id="SCQu456kyGRi4WaKhEAO-21" value="" style="html=1;shadow=0;dashed=0;align=center;verticalAlign=middle;shape=mxgraph.arrows2.arrow;dy=0.6;dx=40;notch=0;fillColor=#bac8d3;strokeColor=#23445d;labelBackgroundColor=none;labelBorderColor=none;fontColor=#000000;" parent="1" vertex="1">
                    <mxGeometry x="650" y="186" width="40" height="40" as="geometry"/>
                </mxCell>
                <mxCell id="SCQu456kyGRi4WaKhEAO-22" value="Realizar el pago" style="rounded=1;html=1;fillColor=#dae8fc;strokeColor=#6c8ebf;labelBackgroundColor=none;labelBorderColor=none;fontColor=#000000;" parent="1" vertex="1">
                    <mxGeometry x="1060" y="176" width="120" height="60" as="geometry"/>
                </mxCell>
                <mxCell id="SCQu456kyGRi4WaKhEAO-23" value="" style="html=1;shadow=0;dashed=0;align=center;verticalAlign=middle;shape=mxgraph.arrows2.arrow;dy=0.6;dx=40;notch=0;fillColor=#bac8d3;strokeColor=#23445d;labelBackgroundColor=none;labelBorderColor=none;fontColor=#000000;" parent="1" vertex="1">
                    <mxGeometry x="1010" y="186" width="40" height="40" as="geometry"/>
                </mxCell>
                <mxCell id="SCQu456kyGRi4WaKhEAO-24" value="Recibir recomendaciones" style="rounded=1;html=1;fillColor=#d5e8d4;strokeColor=#82b366;labelBackgroundColor=none;labelBorderColor=none;fontColor=#000000;" parent="1" vertex="1">
                    <mxGeometry x="1250" y="176" width="120" height="60" as="geometry"/>
                </mxCell>
                <mxCell id="SCQu456kyGRi4WaKhEAO-25" value="" style="html=1;shadow=0;dashed=0;align=center;verticalAlign=middle;shape=mxgraph.arrows2.arrow;dy=0.6;dx=40;notch=0;fillColor=#bac8d3;strokeColor=#23445d;labelBackgroundColor=none;labelBorderColor=none;fontColor=#000000;" parent="1" vertex="1">
                    <mxGeometry x="1195" y="186" width="40" height="40" as="geometry"/>
                </mxCell>
                <mxCell id="SCQu456kyGRi4WaKhEAO-27" value="Permanencia" style="html=1;shadow=0;dashed=0;align=center;verticalAlign=middle;shape=mxgraph.arrows2.arrow;dy=0;dx=30;notch=30;fillColor=#d5e8d4;strokeColor=#82b366;labelBackgroundColor=none;labelBorderColor=none;fontColor=#000000;" parent="1" vertex="1">
                    <mxGeometry x="1205" y="85" width="210" height="60" as="geometry"/>
                </mxCell>
                <mxCell id="SCQu456kyGRi4WaKhEAO-29" value="Filtrar segun preferencias" style="rounded=1;html=1;fillColor=#e1d5e7;strokeColor=#9673a6;labelBackgroundColor=none;labelBorderColor=none;fontColor=#000000;" parent="1" vertex="1">
                    <mxGeometry x="700" y="176" width="120" height="60" as="geometry"/>
                </mxCell>
                <mxCell id="SCQu456kyGRi4WaKhEAO-30" value="" style="html=1;shadow=0;dashed=0;align=center;verticalAlign=middle;shape=mxgraph.arrows2.arrow;dy=0.6;dx=40;notch=0;fillColor=#bac8d3;strokeColor=#23445d;labelBackgroundColor=none;labelBorderColor=none;fontColor=#000000;" parent="1" vertex="1">
                    <mxGeometry x="830" y="186" width="40" height="40" as="geometry"/>
                </mxCell>
                <mxCell id="SCQu456kyGRi4WaKhEAO-31" value="Clarificacion" style="html=1;shadow=0;dashed=0;align=center;verticalAlign=middle;shape=mxgraph.arrows2.arrow;dy=0;dx=30;notch=30;fillColor=#e1d5e7;strokeColor=#9673a6;labelBackgroundColor=none;labelBorderColor=none;fontColor=#000000;" parent="1" vertex="1">
                    <mxGeometry x="655" y="85" width="210" height="60" as="geometry"/>
                </mxCell>
                <mxCell id="SCQu456kyGRi4WaKhEAO-35" value="&lt;div style=&quot;text-align: left;&quot;&gt;&lt;span style=&quot;&quot;&gt;- Usabilidad&lt;/span&gt;&lt;/div&gt;&lt;div style=&quot;text-align: left;&quot;&gt;&lt;span style=&quot;&quot;&gt;- Estetica&lt;/span&gt;&lt;/div&gt;&lt;div style=&quot;text-align: left;&quot;&gt;&lt;span style=&quot;&quot;&gt;- Confianza&lt;/span&gt;&lt;/div&gt;" style="rounded=0;html=1;fillColor=#f8cecc;strokeColor=#b85450;labelBackgroundColor=none;labelBorderColor=none;fontColor=#000000;" parent="1" vertex="1">
                    <mxGeometry x="157.5" y="326" width="120" height="80" as="geometry"/>
                </mxCell>
                <mxCell id="SCQu456kyGRi4WaKhEAO-37" value="&lt;div style=&quot;text-align: left;&quot;&gt;- Claridad&lt;/div&gt;&lt;div style=&quot;text-align: left;&quot;&gt;- Relevancia&lt;/div&gt;&lt;div style=&quot;text-align: left;&quot;&gt;- Contenido&lt;/div&gt;" style="rounded=0;html=1;fillColor=#fff2cc;strokeColor=#d6b656;labelBackgroundColor=none;labelBorderColor=none;fontColor=#000000;" parent="1" vertex="1">
                    <mxGeometry x="517.5" y="326" width="120" height="80" as="geometry"/>
                </mxCell>
                <mxCell id="SCQu456kyGRi4WaKhEAO-38" value="&lt;div style=&quot;text-align: left;&quot;&gt;&lt;span style=&quot;&quot;&gt;&lt;br&gt;&lt;/span&gt;&lt;/div&gt;&lt;div style=&quot;text-align: left;&quot;&gt;&lt;span style=&quot;&quot;&gt;- Practicidad&amp;nbsp;&lt;/span&gt;&lt;br&gt;&lt;/div&gt;&lt;div style=&quot;text-align: left;&quot;&gt;&lt;span style=&quot;&quot;&gt;- Contenido&lt;/span&gt;&lt;/div&gt;&lt;div style=&quot;text-align: left;&quot;&gt;&lt;br&gt;&lt;/div&gt;" style="rounded=0;html=1;fillColor=#e1d5e7;strokeColor=#9673a6;labelBackgroundColor=none;labelBorderColor=none;fontColor=#000000;" parent="1" vertex="1">
                    <mxGeometry x="700" y="326" width="120" height="80" as="geometry"/>
                </mxCell>
                <mxCell id="SCQu456kyGRi4WaKhEAO-40" value="&lt;div style=&quot;text-align: left;&quot;&gt;&lt;div&gt;- Practicidad&lt;/div&gt;&lt;div&gt;- Integracion&lt;span style=&quot;&quot;&gt;&amp;nbsp;&lt;/span&gt;&lt;/div&gt;&lt;/div&gt;" style="rounded=0;html=1;fillColor=#ffe6cc;strokeColor=#d79b00;labelBackgroundColor=none;labelBorderColor=none;fontColor=#000000;" parent="1" vertex="1">
                    <mxGeometry x="337.5" y="326" width="120" height="80" as="geometry"/>
                </mxCell>
                <mxCell id="SCQu456kyGRi4WaKhEAO-41" value="&lt;div style=&quot;text-align: left;&quot;&gt;- Confianza&amp;nbsp;&lt;/div&gt;&lt;div style=&quot;text-align: left;&quot;&gt;- Costos&amp;nbsp;&lt;/div&gt;&lt;div style=&quot;text-align: left;&quot;&gt;- Promociones&lt;/div&gt;" style="rounded=0;html=1;fillColor=#dae8fc;strokeColor=#6c8ebf;labelBackgroundColor=none;labelBorderColor=none;fontColor=#000000;" parent="1" vertex="1">
                    <mxGeometry x="880" y="326" width="120" height="80" as="geometry"/>
                </mxCell>
                <mxCell id="SCQu456kyGRi4WaKhEAO-42" value="&lt;div style=&quot;text-align: left;&quot;&gt;- Confianza&lt;/div&gt;&lt;div style=&quot;text-align: left;&quot;&gt;- Medios de pago&lt;/div&gt;" style="rounded=0;html=1;fillColor=#dae8fc;strokeColor=#6c8ebf;labelBackgroundColor=none;labelBorderColor=none;fontColor=#000000;" parent="1" vertex="1">
                    <mxGeometry x="1060" y="326" width="120" height="80" as="geometry"/>
                </mxCell>
                <mxCell id="SCQu456kyGRi4WaKhEAO-43" value="&lt;div style=&quot;text-align: left;&quot;&gt;- Relevancia&lt;/div&gt;&lt;div style=&quot;text-align: left;&quot;&gt;- Canales&lt;/div&gt;" style="rounded=0;html=1;fillColor=#d5e8d4;strokeColor=#82b366;labelBackgroundColor=none;labelBorderColor=none;fontColor=#000000;" parent="1" vertex="1">
                    <mxGeometry x="1250" y="326" width="120" height="80" as="geometry"/>
                </mxCell>
            </root>
        </mxGraphModel>
    </diagram>
    <diagram name="User" id="SnUuTj0u37A4NibTbfim">
        <mxGraphModel dx="1434" dy="754" grid="1" gridSize="10" guides="1" tooltips="1" connect="1" arrows="1" fold="1" page="1" pageScale="1" pageWidth="850" pageHeight="1100" math="0" shadow="0">
            <root>
                <mxCell id="KRwKevVO_VH3E62p_6Zh-0"/>
                <mxCell id="KRwKevVO_VH3E62p_6Zh-1" parent="KRwKevVO_VH3E62p_6Zh-0"/>
                <mxCell id="KRwKevVO_VH3E62p_6Zh-2" value="" style="rounded=0;html=1;fillColor=#f5f5f5;fontColor=#000000;strokeColor=#666666;labelBackgroundColor=none;labelBorderColor=none;" vertex="1" parent="KRwKevVO_VH3E62p_6Zh-1">
                    <mxGeometry x="100" y="75" width="1330" height="400" as="geometry"/>
                </mxCell>
                <mxCell id="KRwKevVO_VH3E62p_6Zh-3" value="Visitar la PÃ¡gina Web" style="rounded=1;html=1;fillColor=#f8cecc;strokeColor=#b85450;labelBackgroundColor=none;labelBorderColor=none;fontColor=#000000;" vertex="1" parent="KRwKevVO_VH3E62p_6Zh-1">
                    <mxGeometry x="160" y="176" width="120" height="60" as="geometry"/>
                </mxCell>
                <mxCell id="KRwKevVO_VH3E62p_6Zh-4" value="Registrarse" style="rounded=1;html=1;fillColor=#ffe6cc;strokeColor=#d79b00;labelBackgroundColor=none;labelBorderColor=none;fontColor=#000000;" vertex="1" parent="KRwKevVO_VH3E62p_6Zh-1">
                    <mxGeometry x="337.5" y="176" width="120" height="60" as="geometry"/>
                </mxCell>
                <mxCell id="KRwKevVO_VH3E62p_6Zh-5" value="Explorar la Libreria" style="rounded=1;html=1;fillColor=#fff2cc;strokeColor=#d6b656;labelBackgroundColor=none;labelBorderColor=none;fontColor=#000000;" vertex="1" parent="KRwKevVO_VH3E62p_6Zh-1">
                    <mxGeometry x="517.5" y="176" width="120" height="60" as="geometry"/>
                </mxCell>
                <mxCell id="KRwKevVO_VH3E62p_6Zh-6" value="Descubrimiento" style="html=1;shadow=0;dashed=0;align=center;verticalAlign=middle;shape=mxgraph.arrows2.arrow;dy=0;dx=30;notch=30;fillColor=#f8cecc;strokeColor=#b85450;labelBackgroundColor=none;labelBorderColor=none;fontColor=#000000;" vertex="1" parent="KRwKevVO_VH3E62p_6Zh-1">
                    <mxGeometry x="115" y="85" width="205" height="60" as="geometry"/>
                </mxCell>
                <mxCell id="KRwKevVO_VH3E62p_6Zh-7" value="Ingreso" style="html=1;shadow=0;dashed=0;align=center;verticalAlign=middle;shape=mxgraph.arrows2.arrow;dy=0;dx=30;notch=30;fillColor=#ffe6cc;strokeColor=#d79b00;labelBackgroundColor=none;labelBorderColor=none;fontColor=#000000;" vertex="1" parent="KRwKevVO_VH3E62p_6Zh-1">
                    <mxGeometry x="295" y="85" width="205" height="60" as="geometry"/>
                </mxCell>
                <mxCell id="KRwKevVO_VH3E62p_6Zh-8" value="Aprendizaje" style="html=1;shadow=0;dashed=0;align=center;verticalAlign=middle;shape=mxgraph.arrows2.arrow;dy=0;dx=30;notch=30;fillColor=#fff2cc;strokeColor=#d6b656;labelBackgroundColor=none;labelBorderColor=none;fontColor=#000000;" vertex="1" parent="KRwKevVO_VH3E62p_6Zh-1">
                    <mxGeometry x="475" y="85" width="205" height="60" as="geometry"/>
                </mxCell>
                <mxCell id="KRwKevVO_VH3E62p_6Zh-9" value="" style="html=1;shadow=0;dashed=0;align=center;verticalAlign=middle;shape=mxgraph.arrows2.arrow;dy=0.6;dx=40;notch=0;fillColor=#bac8d3;strokeColor=#23445d;labelBackgroundColor=none;labelBorderColor=none;fontColor=#000000;" vertex="1" parent="KRwKevVO_VH3E62p_6Zh-1">
                    <mxGeometry x="290" y="186" width="40" height="40" as="geometry"/>
                </mxCell>
                <mxCell id="KRwKevVO_VH3E62p_6Zh-10" value="" style="html=1;shadow=0;dashed=0;align=center;verticalAlign=middle;shape=mxgraph.arrows2.arrow;dy=0.6;dx=40;notch=0;fillColor=#bac8d3;strokeColor=#23445d;labelBackgroundColor=none;labelBorderColor=none;fontColor=#000000;" vertex="1" parent="KRwKevVO_VH3E62p_6Zh-1">
                    <mxGeometry x="470" y="186" width="40" height="40" as="geometry"/>
                </mxCell>
                <mxCell id="KRwKevVO_VH3E62p_6Zh-11" value="Agregar libros al carrito" style="rounded=1;html=1;fillColor=#dae8fc;strokeColor=#6c8ebf;labelBackgroundColor=none;labelBorderColor=none;fontColor=#000000;" vertex="1" parent="KRwKevVO_VH3E62p_6Zh-1">
                    <mxGeometry x="880" y="176" width="120" height="60" as="geometry"/>
                </mxCell>
                <mxCell id="KRwKevVO_VH3E62p_6Zh-12" value="Adquisicion&amp;nbsp;" style="html=1;shadow=0;dashed=0;align=center;verticalAlign=middle;shape=mxgraph.arrows2.arrow;dy=0;dx=30;notch=30;fillColor=#dae8fc;strokeColor=#6c8ebf;labelBackgroundColor=none;labelBorderColor=none;fontColor=#000000;" vertex="1" parent="KRwKevVO_VH3E62p_6Zh-1">
                    <mxGeometry x="840" y="85" width="390" height="60" as="geometry"/>
                </mxCell>
                <mxCell id="KRwKevVO_VH3E62p_6Zh-13" value="" style="html=1;shadow=0;dashed=0;align=center;verticalAlign=middle;shape=mxgraph.arrows2.arrow;dy=0.6;dx=40;notch=0;fillColor=#bac8d3;strokeColor=#23445d;labelBackgroundColor=none;labelBorderColor=none;fontColor=#000000;" vertex="1" parent="KRwKevVO_VH3E62p_6Zh-1">
                    <mxGeometry x="650" y="186" width="40" height="40" as="geometry"/>
                </mxCell>
                <mxCell id="KRwKevVO_VH3E62p_6Zh-14" value="Realizar el pago" style="rounded=1;html=1;fillColor=#dae8fc;strokeColor=#6c8ebf;labelBackgroundColor=none;labelBorderColor=none;fontColor=#000000;" vertex="1" parent="KRwKevVO_VH3E62p_6Zh-1">
                    <mxGeometry x="1060" y="176" width="120" height="60" as="geometry"/>
                </mxCell>
                <mxCell id="KRwKevVO_VH3E62p_6Zh-15" value="" style="html=1;shadow=0;dashed=0;align=center;verticalAlign=middle;shape=mxgraph.arrows2.arrow;dy=0.6;dx=40;notch=0;fillColor=#bac8d3;strokeColor=#23445d;labelBackgroundColor=none;labelBorderColor=none;fontColor=#000000;" vertex="1" parent="KRwKevVO_VH3E62p_6Zh-1">
                    <mxGeometry x="1010" y="186" width="40" height="40" as="geometry"/>
                </mxCell>
                <mxCell id="KRwKevVO_VH3E62p_6Zh-16" value="Recibir recomendaciones" style="rounded=1;html=1;fillColor=#d5e8d4;strokeColor=#82b366;labelBackgroundColor=none;labelBorderColor=none;fontColor=#000000;" vertex="1" parent="KRwKevVO_VH3E62p_6Zh-1">
                    <mxGeometry x="1250" y="176" width="120" height="60" as="geometry"/>
                </mxCell>
                <mxCell id="KRwKevVO_VH3E62p_6Zh-17" value="" style="html=1;shadow=0;dashed=0;align=center;verticalAlign=middle;shape=mxgraph.arrows2.arrow;dy=0.6;dx=40;notch=0;fillColor=#bac8d3;strokeColor=#23445d;labelBackgroundColor=none;labelBorderColor=none;fontColor=#000000;" vertex="1" parent="KRwKevVO_VH3E62p_6Zh-1">
                    <mxGeometry x="1195" y="186" width="40" height="40" as="geometry"/>
                </mxCell>
                <mxCell id="KRwKevVO_VH3E62p_6Zh-18" value="Permanencia" style="html=1;shadow=0;dashed=0;align=center;verticalAlign=middle;shape=mxgraph.arrows2.arrow;dy=0;dx=30;notch=30;fillColor=#d5e8d4;strokeColor=#82b366;labelBackgroundColor=none;labelBorderColor=none;fontColor=#000000;" vertex="1" parent="KRwKevVO_VH3E62p_6Zh-1">
                    <mxGeometry x="1205" y="85" width="210" height="60" as="geometry"/>
                </mxCell>
                <mxCell id="KRwKevVO_VH3E62p_6Zh-19" value="Filtrar segun preferencias" style="rounded=1;html=1;fillColor=#e1d5e7;strokeColor=#9673a6;labelBackgroundColor=none;labelBorderColor=none;fontColor=#000000;" vertex="1" parent="KRwKevVO_VH3E62p_6Zh-1">
                    <mxGeometry x="700" y="176" width="120" height="60" as="geometry"/>
                </mxCell>
                <mxCell id="KRwKevVO_VH3E62p_6Zh-20" value="" style="html=1;shadow=0;dashed=0;align=center;verticalAlign=middle;shape=mxgraph.arrows2.arrow;dy=0.6;dx=40;notch=0;fillColor=#bac8d3;strokeColor=#23445d;labelBackgroundColor=none;labelBorderColor=none;fontColor=#000000;" vertex="1" parent="KRwKevVO_VH3E62p_6Zh-1">
                    <mxGeometry x="830" y="186" width="40" height="40" as="geometry"/>
                </mxCell>
                <mxCell id="KRwKevVO_VH3E62p_6Zh-21" value="Clarificacion" style="html=1;shadow=0;dashed=0;align=center;verticalAlign=middle;shape=mxgraph.arrows2.arrow;dy=0;dx=30;notch=30;fillColor=#e1d5e7;strokeColor=#9673a6;labelBackgroundColor=none;labelBorderColor=none;fontColor=#000000;" vertex="1" parent="KRwKevVO_VH3E62p_6Zh-1">
                    <mxGeometry x="655" y="85" width="210" height="60" as="geometry"/>
                </mxCell>
                <mxCell id="KRwKevVO_VH3E62p_6Zh-22" value="&lt;div style=&quot;text-align: left;&quot;&gt;&lt;span style=&quot;&quot;&gt;- Usabilidad&lt;/span&gt;&lt;/div&gt;&lt;div style=&quot;text-align: left;&quot;&gt;&lt;span style=&quot;&quot;&gt;- Estetica&lt;/span&gt;&lt;/div&gt;&lt;div style=&quot;text-align: left;&quot;&gt;&lt;span style=&quot;&quot;&gt;- Confianza&lt;/span&gt;&lt;/div&gt;" style="rounded=0;html=1;fillColor=#f8cecc;strokeColor=#b85450;labelBackgroundColor=none;labelBorderColor=none;fontColor=#000000;" vertex="1" parent="KRwKevVO_VH3E62p_6Zh-1">
                    <mxGeometry x="157.5" y="326" width="120" height="80" as="geometry"/>
                </mxCell>
                <mxCell id="KRwKevVO_VH3E62p_6Zh-23" value="&lt;div style=&quot;text-align: left;&quot;&gt;- Claridad&lt;/div&gt;&lt;div style=&quot;text-align: left;&quot;&gt;- Relevancia&lt;/div&gt;&lt;div style=&quot;text-align: left;&quot;&gt;- Contenido&lt;/div&gt;" style="rounded=0;html=1;fillColor=#fff2cc;strokeColor=#d6b656;labelBackgroundColor=none;labelBorderColor=none;fontColor=#000000;" vertex="1" parent="KRwKevVO_VH3E62p_6Zh-1">
                    <mxGeometry x="517.5" y="326" width="120" height="80" as="geometry"/>
                </mxCell>
                <mxCell id="KRwKevVO_VH3E62p_6Zh-24" value="&lt;div style=&quot;text-align: left;&quot;&gt;&lt;span style=&quot;&quot;&gt;&lt;br&gt;&lt;/span&gt;&lt;/div&gt;&lt;div style=&quot;text-align: left;&quot;&gt;&lt;span style=&quot;&quot;&gt;- Practicidad&amp;nbsp;&lt;/span&gt;&lt;br&gt;&lt;/div&gt;&lt;div style=&quot;text-align: left;&quot;&gt;&lt;span style=&quot;&quot;&gt;- Contenido&lt;/span&gt;&lt;/div&gt;&lt;div style=&quot;text-align: left;&quot;&gt;&lt;br&gt;&lt;/div&gt;" style="rounded=0;html=1;fillColor=#e1d5e7;strokeColor=#9673a6;labelBackgroundColor=none;labelBorderColor=none;fontColor=#000000;" vertex="1" parent="KRwKevVO_VH3E62p_6Zh-1">
                    <mxGeometry x="700" y="326" width="120" height="80" as="geometry"/>
                </mxCell>
                <mxCell id="KRwKevVO_VH3E62p_6Zh-25" value="&lt;div style=&quot;text-align: left;&quot;&gt;&lt;div&gt;- Practicidad&lt;/div&gt;&lt;div&gt;- Integracion&lt;span style=&quot;&quot;&gt;&amp;nbsp;&lt;/span&gt;&lt;/div&gt;&lt;/div&gt;" style="rounded=0;html=1;fillColor=#ffe6cc;strokeColor=#d79b00;labelBackgroundColor=none;labelBorderColor=none;fontColor=#000000;" vertex="1" parent="KRwKevVO_VH3E62p_6Zh-1">
                    <mxGeometry x="337.5" y="326" width="120" height="80" as="geometry"/>
                </mxCell>
                <mxCell id="KRwKevVO_VH3E62p_6Zh-26" value="&lt;div style=&quot;text-align: left;&quot;&gt;- Confianza&amp;nbsp;&lt;/div&gt;&lt;div style=&quot;text-align: left;&quot;&gt;- Costos&amp;nbsp;&lt;/div&gt;&lt;div style=&quot;text-align: left;&quot;&gt;- Promociones&lt;/div&gt;" style="rounded=0;html=1;fillColor=#dae8fc;strokeColor=#6c8ebf;labelBackgroundColor=none;labelBorderColor=none;fontColor=#000000;" vertex="1" parent="KRwKevVO_VH3E62p_6Zh-1">
                    <mxGeometry x="880" y="326" width="120" height="80" as="geometry"/>
                </mxCell>
                <mxCell id="KRwKevVO_VH3E62p_6Zh-27" value="&lt;div style=&quot;text-align: left;&quot;&gt;- Confianza&lt;/div&gt;&lt;div style=&quot;text-align: left;&quot;&gt;- Medios de pago&lt;/div&gt;" style="rounded=0;html=1;fillColor=#dae8fc;strokeColor=#6c8ebf;labelBackgroundColor=none;labelBorderColor=none;fontColor=#000000;" vertex="1" parent="KRwKevVO_VH3E62p_6Zh-1">
                    <mxGeometry x="1060" y="326" width="120" height="80" as="geometry"/>
                </mxCell>
                <mxCell id="KRwKevVO_VH3E62p_6Zh-28" value="&lt;div style=&quot;text-align: left;&quot;&gt;- Relevancia&lt;/div&gt;&lt;div style=&quot;text-align: left;&quot;&gt;- Canales&lt;/div&gt;" style="rounded=0;html=1;fillColor=#d5e8d4;strokeColor=#82b366;labelBackgroundColor=none;labelBorderColor=none;fontColor=#000000;" vertex="1" parent="KRwKevVO_VH3E62p_6Zh-1">
                    <mxGeometry x="1250" y="326" width="120" height="80" as="geometry"/>
                </mxCell>
            </root>
        </mxGraphModel>
    </diagram>
</mxfile>